<?xml version="1.0" standalone="no"?> 
<!DOCTYPE svg PUBLIC "-//W3C//DTD SVG 1.1//EN" "http://www.w3.org/Graphics/SVG/1.1/DTD/svg11.dtd" >
<svg xmlns="http://www.w3.org/2000/svg">
<defs>
  <font id="agIcon" horiz-adv-x="512">
    <font-face font-family="agIcon"
      units-per-em="512" ascent="512"
      descent="0" />
    <missing-glyph horiz-adv-x="0" />
    <glyph glyph-name="warning-regular"
      unicode="&#xF101;"
      horiz-adv-x="512" d=" M232.7466666666667 452.6506666666667A48 48 0 0 0 296.2133333333333 436.8640000000001L297.984 433.92L463.5093333333333 135.0613333333333A48 48 0 0 0 424.8106666666667 63.936L421.5253333333333 63.808H90.5173333333333A48 48 0 0 0 46.976 132.0106666666667L48.512 135.0613333333333L213.9946666666667 433.92A48 48 0 0 0 232.7253333333334 452.6506666666667zM435.52 119.5733333333334L269.9733333333333 418.4106666666667A16 16 0 0 1 243.2213333333333 420.288L242.0053333333333 418.4106666666667L76.5226666666667 119.5733333333334A16 16 0 0 1 88.4906666666667 95.936L90.5173333333333 95.808H421.5253333333333A16 16 0 0 1 436.3733333333334 117.7386666666666L435.5200000000001 119.5733333333333L269.9733333333334 418.4106666666666L435.5200000000001 119.5733333333333zM256 170.624A21.312 21.312 0 1 0 256 128.0213333333334A21.312 21.312 0 0 0 256 170.624zM255.8933333333333 330.6666666666667A16 16 0 0 0 271.7653333333333 316.8640000000001L271.9146666666666 314.688L272 218.6453333333333A16 16 0 0 0 240.128 216.448L240 218.624L239.9146666666666 314.6666666666667A16 16 0 0 0 255.9146666666666 330.6666666666667z" />
    <glyph glyph-name="warning-filled"
      unicode="&#xF102;"
      horiz-adv-x="512" d=" M232.7253333333334 452.6506666666667A48 48 0 0 0 296.192 436.8640000000001L297.9626666666667 433.92L463.4879999999999 135.0613333333333A48 48 0 0 0 424.7893333333333 63.936L421.504 63.808H90.496A48 48 0 0 0 46.9333333333333 132.0106666666667L48.4693333333333 135.0613333333333L213.9733333333333 433.92A48 48 0 0 0 232.7253333333333 452.6506666666667zM256 170.624A21.312 21.312 0 1 1 256 128.0213333333334A21.312 21.312 0 0 1 256 170.624zM255.9573333333333 341.3760000000001A21.333333333333332 21.333333333333332 0 0 1 234.7733333333333 322.5173333333334L234.6666666666667 320.0426666666667L234.6666666666667 213.3333333333334L234.816 210.8373333333333A21.333333333333332 21.333333333333332 0 0 1 277.2053333333334 210.8373333333333L277.3333333333333 213.3333333333334L277.3333333333333 320.0426666666667L277.184 322.5386666666667A21.333333333333332 21.333333333333332 0 0 1 255.9786666666667 341.3760000000001z" />
    <glyph glyph-name="subtract-circle-regular"
      unicode="&#xF103;"
      horiz-adv-x="512" d=" M176 272A16 16 0 0 1 176 240H336A16 16 0 0 1 336 272H176zM256 448A192 192 0 1 1 256 64A192 192 0 0 1 256 448zM96 256A160 160 0 1 0 416 256A160 160 0 0 0 96 256z" />
    <glyph glyph-name="subtract-circle-filled"
      unicode="&#xF104;"
      horiz-adv-x="512" d=" M256 448A192 192 0 1 1 256 64A192 192 0 0 1 256 448zM176 272H336A16 16 0 0 0 336 240H176A16 16 0 0 0 176 272z" />
    <glyph glyph-name="star-regular"
      unicode="&#xF105;"
      horiz-adv-x="512" d=" M230.208 444.7680000000001A28.799999999999997 28.799999999999997 0 0 0 281.856 444.7680000000001L330.528 346.144L439.36 330.304A28.799999999999997 28.799999999999997 0 0 0 455.36 281.184L376.576 204.416L395.168 96.032A28.799999999999997 28.799999999999997 0 0 0 353.376 65.664L256.032 116.864L158.688 65.664A28.799999999999997 28.799999999999997 0 0 0 116.896 96.032L135.456 204.416L56.736 281.216A28.799999999999997 28.799999999999997 0 0 0 72.704 330.304L181.504 346.144L230.208 444.7680000000001zM256 424.7680000000001L209.472 330.464A28.799999999999997 28.799999999999997 0 0 0 187.808 314.7200000000001L83.712 299.584L159.04 226.176A28.799999999999997 28.799999999999997 0 0 0 167.296 200.672L149.536 96.992L242.656 145.952A28.799999999999997 28.799999999999997 0 0 0 269.44 145.952L362.56 96.992L344.7680000000001 200.672A28.799999999999997 28.799999999999997 0 0 0 353.024 226.176L428.352 299.584L324.256 314.7200000000001A28.799999999999997 28.799999999999997 0 0 0 302.592 330.464L256 424.7680000000001z" />
    <glyph glyph-name="star-half-filled"
      unicode="&#xF106;"
      horiz-adv-x="512" d=" M181.536 346.144L230.176 444.7680000000001A28.480000000000004 28.480000000000004 0 0 0 256 460.8A28.480000000000004 28.480000000000004 0 0 0 281.856 444.7680000000001L330.528 346.144L439.36 330.304A28.799999999999997 28.799999999999997 0 0 0 455.36 281.184L376.576 204.416L395.168 96.032A28.799999999999997 28.799999999999997 0 0 0 353.376 65.664L256.032 116.864L158.688 65.664A28.799999999999997 28.799999999999997 0 0 0 116.896 96.032L135.456 204.416L56.736 281.216A28.799999999999997 28.799999999999997 0 0 0 72.704 330.304L181.504 346.144zM256 149.248C260.608 149.248 265.216 148.16 269.44 145.952L362.56 96.992L344.7680000000001 200.672A28.799999999999997 28.799999999999997 0 0 0 353.024 226.1760000000001L428.352 299.5840000000001L324.256 314.7200000000001A28.799999999999997 28.799999999999997 0 0 0 302.592 330.4640000000001L256 424.7680000000001L256 424.704V149.248z" />
    <glyph glyph-name="star-filled"
      unicode="&#xF107;"
      horiz-adv-x="512" d=" M230.208 444.7680000000001A28.799999999999997 28.799999999999997 0 0 0 281.856 444.7680000000001L330.528 346.144L439.36 330.304A28.799999999999997 28.799999999999997 0 0 0 455.36 281.184L376.576 204.416L395.168 96.032A28.799999999999997 28.799999999999997 0 0 0 353.376 65.664L256.032 116.864L158.688 65.664A28.799999999999997 28.799999999999997 0 0 0 116.896 96.032L135.456 204.416L56.736 281.216A28.799999999999997 28.799999999999997 0 0 0 72.704 330.304L181.504 346.144L230.208 444.7680000000001z" />
    <glyph glyph-name="settings-regular"
      unicode="&#xF108;"
      horiz-adv-x="512" d=" M256 320A64 64 0 1 1 256 192A64 64 0 0 1 256 320zM224 256A32 32 0 1 0 288 256A32 32 0 0 0 224 256zM339.776 371.264A22.656 22.656 0 0 0 313.408 389.408L305.088 434.7200000000001A11.328 11.328 0 0 1 296.288 443.7440000000001A194.30400000000003 194.30400000000003 0 0 1 215.68 443.7440000000001A11.328 11.328 0 0 1 206.88 434.7200000000001L198.592 389.408A22.720000000000002 22.720000000000002 0 0 0 168.64 372.192L125.152 387.68A11.360000000000001 11.360000000000001 0 0 1 112.928 384.64C94.72 364.576 80.928 340.896 72.544 315.104A11.264 11.264 0 0 1 76 303.008L111.264 273.216A22.528 22.528 0 0 0 111.264 238.784L76 208.992A11.264 11.264 0 0 1 72.544 196.896A191.552 191.552 0 0 1 112.96 127.36A11.360000000000001 11.360000000000001 0 0 1 125.184 124.32L168.704 139.808A22.656 22.656 0 0 0 198.656 122.592L206.912 77.28C207.744 72.8 211.232 69.216 215.712 68.288A194.4 194.4 0 0 1 296.3520000000001 68.288A11.296 11.296 0 0 1 305.12 77.28L313.44 122.592A22.720000000000002 22.720000000000002 0 0 0 343.392 139.808L386.88 124.32C391.2 122.784 396.032 124 399.104 127.36C417.312 147.424 431.104 171.1040000000001 439.488 196.896A11.264 11.264 0 0 1 436.032 208.992L400.768 238.784A22.496 22.496 0 0 0 400.768 273.216L436.032 303.0080000000001A11.264 11.264 0 0 1 439.488 315.1040000000001A191.52 191.52 0 0 1 399.04 384.64A11.360000000000001 11.360000000000001 0 0 1 386.8160000000001 387.68L343.2960000000001 372.192A22.720000000000002 22.720000000000002 0 0 0 339.7440000000001 371.232zM127.936 352.704L157.92 342.048A54.720000000000006 54.720000000000006 0 0 1 230.08 383.648L235.744 414.688A163.36 163.36 0 0 0 276.224 414.688L281.92 383.648A54.656 54.656 0 0 1 354.0800000000001 342.048L384 352.736C392.1600000000001 342.048 398.944 330.4 404.1600000000001 318.048L380.0320000000001 297.664A54.528 54.528 0 0 1 380.0320000000001 214.336L404.1920000000001 193.952A159.68 159.68 0 0 0 384.0320000000001 159.264L354.0480000000001 169.952A54.720000000000006 54.720000000000006 0 0 1 281.8880000000001 128.352L276.192 97.312A163.168 163.168 0 0 0 235.712 97.312L230.0480000000001 128.352A54.656 54.656 0 0 1 157.888 169.952L128 159.264A159.584 159.584 0 0 0 107.84 193.952L131.968 214.368A54.528 54.528 0 0 1 131.968 297.664L107.808 318.048C113.056 330.4 119.84 342.048 127.968 352.736z" />
    <glyph glyph-name="settings-filled"
      unicode="&#xF109;"
      horiz-adv-x="512" d=" M72.544 315.1040000000001A191.552 191.552 0 0 0 112.96 384.64A11.360000000000001 11.360000000000001 0 0 0 125.184 387.68L168.704 372.192A22.720000000000002 22.720000000000002 0 0 1 198.624 389.408L206.944 434.7200000000001A11.328 11.328 0 0 0 215.712 443.7440000000001A194.30400000000003 194.30400000000003 0 0 0 296.3520000000001 443.7440000000001C300.8320000000001 442.784 304.288 439.2320000000001 305.12 434.7200000000001L313.44 389.408A22.656 22.656 0 0 1 343.36 372.192L386.88 387.68A11.360000000000001 11.360000000000001 0 0 0 399.104 384.64C417.312 364.576 431.104 340.896 439.488 315.104A11.264 11.264 0 0 0 436.032 303.008L400.768 273.216A22.496 22.496 0 0 1 400.768 238.784L436.032 208.992C439.552 206.016 440.896 201.2479999999999 439.488 196.896A191.52 191.52 0 0 0 399.104 127.36A11.360000000000001 11.360000000000001 0 0 0 386.88 124.3199999999999L343.36 139.8079999999999A22.720000000000002 22.720000000000002 0 0 1 313.44 122.5919999999999L305.12 77.2799999999999A11.296 11.296 0 0 0 296.32 68.2559999999999A194.176 194.176 0 0 0 215.712 68.2559999999999A11.328 11.328 0 0 0 206.912 77.2799999999999L198.624 122.5919999999999A22.656 22.656 0 0 1 168.704 139.8079999999999L125.184 124.3199999999999A11.360000000000001 11.360000000000001 0 0 0 112.9599999999999 127.36A191.552 191.552 0 0 0 72.5759999999999 196.896A11.264 11.264 0 0 0 76.0319999999999 208.992L111.2959999999999 238.784A22.528 22.528 0 0 1 111.2959999999999 273.216L76.0319999999999 303.0080000000001A11.264 11.264 0 0 0 72.5759999999999 315.1040000000001zM200 256A56 56 0 1 1 312 256A56 56 0 0 1 200 256z" />
    <glyph glyph-name="search-regular"
      unicode="&#xF10A;"
      horiz-adv-x="512" d=" M213.3333333333333 453.3333333333333A154.66666666666666 154.66666666666666 0 0 0 333.44 201.1946666666667L437.9733333333334 96.6613333333334A16 16 0 0 0 417.1520000000001 72.4693333333333L415.36 74.0266666666666L310.8053333333334 178.56A154.66666666666666 154.66666666666666 0 1 0 213.3333333333333 453.3333333333333zM213.3333333333333 421.3333333333334A122.66666666666664 122.66666666666664 0 1 1 213.3333333333333 176A122.66666666666664 122.66666666666664 0 0 1 213.3333333333333 421.3333333333334z" />
    <glyph glyph-name="rewind-regular"
      unicode="&#xF10B;"
      horiz-adv-x="512" d=" M256 369.12A32 32 0 0 1 205.568 395.296L45.184 282.144A32 32 0 0 1 45.184 229.856L205.568 116.704A32 32 0 0 1 256 142.848V216.576L397.568 116.736A32 32 0 0 1 448 142.816V369.12A32 32 0 0 1 397.568 395.296L256 295.424V369.12zM256 255.7440000000001V256.2560000000001L416 369.12V142.88L256 255.712zM224 142.848L63.616 256L224 369.12V142.88z" />
    <glyph glyph-name="rewind-filled"
      unicode="&#xF10C;"
      horiz-adv-x="512" d=" M256 369.12A32 32 0 0 1 205.568 395.296L45.184 282.144A32 32 0 0 1 45.184 229.856L205.568 116.704A32 32 0 0 1 256 142.848V216.576L397.568 116.736A32 32 0 0 1 448 142.816V369.12A32 32 0 0 1 397.568 395.296L256 295.424V369.12z" />
    <glyph glyph-name="question-circle-regular"
      unicode="&#xF10D;"
      horiz-adv-x="512" d=" M256 448A192 192 0 1 0 256 64A192 192 0 0 0 256 448zM256 416A160 160 0 1 1 256 96A160 160 0 0 1 256 416zM256 176A24 24 0 1 0 256 128A24 24 0 0 0 256 176zM256 368A64 64 0 0 0 320 304C320 280.64 313.216 267.52 295.872 249.344L287.4240000000001 240.704C275.36 228.1600000000001 272 221.376 272 208A16 16 0 0 0 240 208C240 231.36 246.784 244.48 264.128 262.656L272.576 271.296C284.64 283.8400000000001 288 290.624 288 304A32 32 0 0 1 224 304A16 16 0 0 0 192 304A64 64 0 0 0 256 368z" />
    <glyph glyph-name="question-circle-filled"
      unicode="&#xF10E;"
      horiz-adv-x="512" d=" M256 448A192 192 0 1 0 256 64A192 192 0 0 0 256 448zM256 176A24 24 0 1 1 256 128A24 24 0 0 1 256 176zM256 368A64 64 0 0 1 192 304A16 16 0 0 1 224 304A32 32 0 0 0 288 304C288 292.16 285.344 285.44 276.288 275.264L272.576 271.264L264.1280000000001 262.624C246.784 244.48 240 231.424 240 208A16 16 0 0 1 272 208C272 219.84 274.656 226.56 283.712 236.736L287.424 240.736L295.872 249.376C313.216 267.52 320 280.576 320 304A64 64 0 0 1 256 368z" />
    <glyph glyph-name="previous-regular"
      unicode="&#xF10F;"
      horiz-adv-x="512" d=" M64 432A16 16 0 0 0 96 432V80A16 16 0 0 0 64 80V432zM448 415.9360000000001A32 32 0 0 1 397.472 442.048L173.472 283.232A32 32 0 0 1 173.28 231.136L397.28 69.952A32 32 0 0 1 448 95.904V415.9360000000001zM192 257.12L416 415.9360000000001V95.936L192 257.088z" />
    <glyph glyph-name="previous-filled"
      unicode="&#xF110;"
      horiz-adv-x="512" d=" M448 415.9360000000001A32 32 0 0 1 397.472 442.048L173.472 283.232A32 32 0 0 1 173.28 231.136L397.28 69.952A32 32 0 0 1 448 95.904V415.9360000000001zM64 432A16 16 0 0 0 96 432V80A16 16 0 0 0 64 80V432z" />
    <glyph glyph-name="play-regular"
      unicode="&#xF111;"
      horiz-adv-x="512" d=" M183.84 413.952A16 16 0 0 1 160 400V112A16 16 0 0 1 183.84 98.048L439.8400000000001 242.048A16 16 0 0 1 439.8400000000001 269.92L183.84 413.92zM128 400A48 48 0 0 0 199.52 441.824L455.52 297.824A48 48 0 0 0 455.52 214.144L199.52 70.144A48 48 0 0 0 128 112V400z" />
    <glyph glyph-name="play-filled"
      unicode="&#xF112;"
      horiz-adv-x="512" d=" M199.52 441.856A48 48 0 0 1 128 400.032V112.032A48 48 0 0 1 199.52 70.176L455.52 214.176A48 48 0 0 1 455.52 297.856L199.52 441.856z" />
    <glyph glyph-name="next-regular"
      unicode="&#xF113;"
      horiz-adv-x="512" d=" M448 432A16 16 0 1 1 416 432V80A16 16 0 0 1 448 80V432zM64 415.9360000000001A32 32 0 0 0 114.528 442.048L338.528 283.232A32 32 0 0 0 338.7200000000001 231.136L114.72 69.952A32 32 0 0 0 64 95.904V415.9360000000001zM320 257.12L96 415.9360000000001V95.936L320 257.12z" />
    <glyph glyph-name="next-filled"
      unicode="&#xF114;"
      horiz-adv-x="512" d=" M64 415.9360000000001A32 32 0 0 0 114.496 442.048L338.496 283.232A32 32 0 0 0 338.72 231.136L114.72 69.952A32 32 0 0 0 64 95.904V415.9360000000001zM448 432A16 16 0 1 1 416 432V80A16 16 0 0 1 448 80V432z" />
    <glyph glyph-name="more-horizontal-regular"
      unicode="&#xF115;"
      horiz-adv-x="512" d=" M160 256A32 32 0 1 0 96 256A32 32 0 0 0 160 256zM288 256A32 32 0 1 0 224 256A32 32 0 0 0 288 256zM384 224A32 32 0 1 1 384 288A32 32 0 0 1 384 224z" />
    <glyph glyph-name="grid-regular"
      unicode="&#xF116;"
      horiz-adv-x="512" d=" M192 230.4A38.400000000000006 38.400000000000006 0 0 0 230.4 192V89.6A38.400000000000006 38.400000000000006 0 0 0 192 51.2H89.6A38.400000000000006 38.400000000000006 0 0 0 51.2 89.6V192A38.400000000000006 38.400000000000006 0 0 0 89.6 230.4H192zM422.4000000000001 230.4A38.400000000000006 38.400000000000006 0 0 0 460.8 192V89.6A38.400000000000006 38.400000000000006 0 0 0 422.4000000000001 51.2H320A38.400000000000006 38.400000000000006 0 0 0 281.6 89.6V192A38.400000000000006 38.400000000000006 0 0 0 320 230.4H422.4000000000001zM192 204.8H89.6A12.800000000000002 12.800000000000002 0 0 1 76.8 192V89.6A12.800000000000002 12.800000000000002 0 0 1 89.6 76.8H192A12.800000000000002 12.800000000000002 0 0 1 204.8 89.6V192A12.800000000000002 12.800000000000002 0 0 1 192 204.8zM422.4000000000001 204.8H320A12.800000000000002 12.800000000000002 0 0 1 307.2000000000001 192V89.6A12.800000000000002 12.800000000000002 0 0 1 320 76.8H422.4000000000001A12.800000000000002 12.800000000000002 0 0 1 435.2000000000001 89.6V192A12.800000000000002 12.800000000000002 0 0 1 422.4000000000001 204.8zM192 460.8A38.400000000000006 38.400000000000006 0 0 0 230.4 422.4V320A38.400000000000006 38.400000000000006 0 0 0 192 281.6H89.6A38.400000000000006 38.400000000000006 0 0 0 51.2 320V422.4A38.400000000000006 38.400000000000006 0 0 0 89.6 460.8H192zM422.4000000000001 460.8A38.400000000000006 38.400000000000006 0 0 0 460.8 422.4V320A38.400000000000006 38.400000000000006 0 0 0 422.4000000000001 281.6H320A38.400000000000006 38.400000000000006 0 0 0 281.6 320V422.4A38.400000000000006 38.400000000000006 0 0 0 320 460.8H422.4000000000001zM192 435.2H89.6A12.800000000000002 12.800000000000002 0 0 1 76.8 422.4V320A12.800000000000002 12.800000000000002 0 0 1 89.6 307.2H192A12.800000000000002 12.800000000000002 0 0 1 204.8 320V422.4A12.800000000000002 12.800000000000002 0 0 1 192 435.2zM422.4000000000001 435.2H320A12.800000000000002 12.800000000000002 0 0 1 307.2000000000001 422.4V320A12.800000000000002 12.800000000000002 0 0 1 320 307.2H422.4000000000001A12.800000000000002 12.800000000000002 0 0 1 435.2000000000001 320V422.4A12.800000000000002 12.800000000000002 0 0 1 422.4000000000001 435.2z" />
    <glyph glyph-name="grid-filled"
      unicode="&#xF117;"
      horiz-adv-x="512" d=" M192 230.4A38.400000000000006 38.400000000000006 0 0 0 230.4 192V89.6A38.400000000000006 38.400000000000006 0 0 0 192 51.2H89.6A38.400000000000006 38.400000000000006 0 0 0 51.2 89.6V192A38.400000000000006 38.400000000000006 0 0 0 89.6 230.4H192zM422.4000000000001 230.4A38.400000000000006 38.400000000000006 0 0 0 460.8 192V89.6A38.400000000000006 38.400000000000006 0 0 0 422.4000000000001 51.2H320A38.400000000000006 38.400000000000006 0 0 0 281.6 89.6V192A38.400000000000006 38.400000000000006 0 0 0 320 230.4H422.4000000000001zM192 460.8A38.400000000000006 38.400000000000006 0 0 0 230.4 422.4V320A38.400000000000006 38.400000000000006 0 0 0 192 281.6H89.6A38.400000000000006 38.400000000000006 0 0 0 51.2 320V422.4A38.400000000000006 38.400000000000006 0 0 0 89.6 460.8H192zM422.4000000000001 460.8A38.400000000000006 38.400000000000006 0 0 0 460.8 422.4V320A38.400000000000006 38.400000000000006 0 0 0 422.4000000000001 281.6H320A38.400000000000006 38.400000000000006 0 0 0 281.6 320V422.4A38.400000000000006 38.400000000000006 0 0 0 320 460.8H422.4000000000001z" />
    <glyph glyph-name="folder-open-regular"
      unicode="&#xF118;"
      horiz-adv-x="512" d=" M416.096 320V320.128A64 64 0 0 1 352.096 384.128H197.6L162.08 412.512A16 16 0 0 1 152.096 416H96A64 64 0 0 1 32 352V160A64 64 0 0 1 96 96H392A48 48 0 0 1 438.08 130.56L475.52 258.56A48 48 0 0 1 429.44 320H416.096zM96 384H146.496L182.016 355.616A16 16 0 0 1 191.968 352.096H352.096A32 32 0 0 0 384.096 320.096V320H136A48 48 0 0 1 89.92 285.44L64 196.576V352A32 32 0 0 0 96 384zM120.64 276.48A16 16 0 0 0 136 288H429.44A16 16 0 0 0 444.8 267.52L407.36 139.52A16 16 0 0 0 392 128H98.656A16 16 0 0 0 83.296 148.48L120.64 276.48z" />
    <glyph glyph-name="folder-open-filled"
      unicode="&#xF119;"
      horiz-adv-x="512" d=" M96 416A64 64 0 0 1 32 352V160C32 146.784 36 134.496 42.88 124.288L89.92 285.44A48 48 0 0 0 136 320H416.096V320.128A64 64 0 0 1 352.096 384.128H197.6L162.08 412.512A16 16 0 0 1 152.096 416H96zM478.112 267.52A16 16 0 0 1 462.752 288H136A16 16 0 0 1 120.64 276.48L73.92 116.48A16 16 0 0 1 89.28 96H392A48 48 0 0 1 438.08 130.56L478.112 267.52z" />
    <glyph glyph-name="fast-forward-regular"
      unicode="&#xF11A;"
      horiz-adv-x="512" d=" M64 369.12A32 32 0 0 0 114.432 395.296L256 295.424V369.12A32 32 0 0 0 306.432 395.296L466.816 282.144A32 32 0 0 0 466.816 229.856L306.432 116.704A32 32 0 0 0 256 142.848V216.576L114.432 116.736A32 32 0 0 0 64 142.816V369.12zM256 256.256L96 369.12V142.88L256 255.7440000000001V256.2560000000001zM288 142.848L448.384 256L288 369.12V142.88z" />
    <glyph glyph-name="fast-forward-filled"
      unicode="&#xF11B;"
      horiz-adv-x="512" d=" M256 369.12A32 32 0 0 0 306.432 395.296L466.816 282.144A32 32 0 0 0 466.816 229.856L306.432 116.704A32 32 0 0 0 256 142.848V216.576L114.432 116.736A32 32 0 0 0 64 142.816V369.12A32 32 0 0 0 114.432 395.296L256 295.424V369.12z" />
    <glyph glyph-name="export-regular"
      unicode="&#xF11C;"
      horiz-adv-x="512" d=" M443.4285714285714 274.2857142857144A13.714285714285714 13.714285714285714 0 0 0 457.0148571428571 262.4365714285715L457.1428571428571 260.5714285714286V105.1428571428572A68.57142857142857 68.57142857142857 0 0 0 392.2285714285714 36.6628571428572L388.5714285714286 36.5714285714286H123.4285714285714A68.57142857142857 68.57142857142857 0 0 0 54.9485714285714 101.5040000000001L54.8571428571429 105.1611428571429V260.5897142857143A13.714285714285714 13.714285714285714 0 0 0 82.1577142857143 262.4365714285715L82.2857142857143 260.5714285714286V105.1428571428572A41.14285714285714 41.14285714285714 0 0 1 120.6125714285714 64.0914285714286L123.4285714285714 64H388.5714285714286A41.14285714285714 41.14285714285714 0 0 1 429.6228571428572 102.3268571428572L429.7142857142857 105.1428571428572V260.5714285714286A13.714285714285714 13.714285714285714 0 0 0 443.4285714285714 274.2857142857144zM253.5131428571429 470.6377142857143L254.7382857142857 470.8022857142857L256.3108571428572 470.8571428571429L257.408 470.784L259.1268571428572 470.4914285714286L260.3702857142858 470.144L261.4674285714286 469.7417142857143L262.7474285714286 469.0834285714286L263.68 468.4982857142857L264.3748571428572 468.0045714285714L265.6914285714286 466.8525714285714L382.0617142857143 350.4822857142857A13.714285714285714 13.714285714285714 0 0 0 364.2148571428572 329.7462857142857L362.6788571428572 331.0811428571428L269.7142857142857 424.0457142857144V178.2857142857143A13.714285714285714 13.714285714285714 0 0 0 257.8651428571429 164.6994285714286L256 164.5714285714286A13.714285714285714 13.714285714285714 0 0 0 242.4137142857143 176.4205714285715L242.2857142857143 178.2857142857143V424.0457142857144L149.3211428571429 331.0811428571428A13.714285714285714 13.714285714285714 0 0 0 131.4742857142857 329.7462857142857L129.9382857142857 331.0811428571428A13.714285714285714 13.714285714285714 0 0 0 128.6034285714286 348.928L129.9382857142857 350.4822857142858L246.3085714285715 466.8342857142857L248.32 468.48L250.0571428571429 469.4857142857143L251.6297142857143 470.1257142857143L253.5131428571429 470.6194285714286z" />
    <glyph glyph-name="error-circle-regular"
      unicode="&#xF11D;"
      horiz-adv-x="512" d=" M256 448A192 192 0 1 0 256 64A192 192 0 0 0 256 448zM256 416A160 160 0 1 1 256 96A160 160 0 0 1 256 416zM256 192A24 24 0 1 0 256 144A24 24 0 0 0 256 192zM256 368A16 16 0 0 0 271.7440000000001 354.88L272 352V240A16 16 0 0 0 240.256 237.12L240 240V352A16 16 0 0 0 256 368z" />
    <glyph glyph-name="error-circle-filled"
      unicode="&#xF11E;"
      horiz-adv-x="512" d=" M256 448A192 192 0 1 0 256 64A192 192 0 0 0 256 448zM256 192A24 24 0 1 1 256 144A24 24 0 0 1 256 192zM256 368A16 16 0 0 1 240.256 354.88L240 352V240L240.256 237.12A16 16 0 0 1 271.7440000000001 237.12L272 240V352L271.7440000000001 354.88A16 16 0 0 1 256 368z" />
    <glyph glyph-name="edit-regular"
      unicode="&#xF11F;"
      horiz-adv-x="512" d=" M429.312 429.312C454.208 404.416 454.208 364.064 429.312 339.168L193.856 103.68C183.648 93.44 170.848 86.208 156.864 82.72L83.808 64.48A15.936 15.936 0 0 0 64.48 83.776L82.72 156.832A79.68 79.68 0 0 0 103.712 193.824L339.168 429.28A63.744 63.744 0 0 0 429.312 429.28zM316.608 361.6960000000001L126.24 171.328A47.84 47.84 0 0 1 113.664 149.12L101.856 101.856L149.12 113.696C157.536 115.776 165.216 120.096 171.328 126.24L361.6960000000001 316.64L316.608 361.696zM361.728 406.8160000000001L339.168 384.256L384.224 339.168L406.784 361.6960000000001A31.872 31.872 0 0 1 361.696 406.8160000000001z" />
    <glyph glyph-name="document-regular"
      unicode="&#xF120;"
      horiz-adv-x="512" d=" M160 480A64 64 0 0 1 96 416V96A64 64 0 0 1 160 32H352A64 64 0 0 1 416 96V338.752A48 48 0 0 1 401.92 372.6720000000001L308.704 465.952A48 48 0 0 1 274.752 480H160zM128 416A32 32 0 0 0 160 448H256V368A48 48 0 0 1 304 320H384V96A32 32 0 0 0 352 64H160A32 32 0 0 0 128 96V416zM377.376 352H304A16 16 0 0 0 288 368V441.376L377.376 352z" />
    <glyph glyph-name="dismiss-regular"
      unicode="&#xF121;"
      horiz-adv-x="512" d=" M82.848 425.088L84.672 427.328A16 16 0 0 0 105.088 429.152L107.328 427.328L256 278.624L404.6720000000001 427.328A16 16 0 0 0 427.3280000000001 404.6720000000001L278.624 256L427.3280000000001 107.328A16 16 0 0 0 429.1520000000001 86.912L427.3280000000001 84.672A16 16 0 0 0 406.9120000000001 82.848L404.6720000000001 84.672L256 233.376L107.328 84.672A16 16 0 0 0 84.672 107.328L233.376 256L84.672 404.6720000000001A16 16 0 0 0 82.848 425.088L84.672 427.328L82.848 425.088z" />
    <glyph glyph-name="dismiss-circle-regular"
      unicode="&#xF122;"
      horiz-adv-x="512" d=" M256 448A192 192 0 1 0 256 64A192 192 0 0 0 256 448zM256 416A160 160 0 1 1 256 96A160 160 0 0 1 256 416zM186.848 321.088L188.672 323.328A16 16 0 0 0 209.088 325.1520000000001L211.328 323.328L256 278.624L300.6720000000001 323.328A16 16 0 0 0 321.088 325.1520000000001L323.3280000000001 323.328A16 16 0 0 0 325.1520000000001 302.9120000000001L323.3280000000001 300.6720000000001L278.624 256L323.3280000000001 211.328A16 16 0 0 0 325.1520000000001 190.912L323.3280000000001 188.672A16 16 0 0 0 302.9120000000001 186.848L300.6720000000001 188.672L256 233.376L211.328 188.672A16 16 0 0 0 190.912 186.848L188.672 188.672A16 16 0 0 0 186.848 209.088L188.672 211.328L233.376 256L188.672 300.6720000000001A16 16 0 0 0 186.848 321.088L188.672 323.328L186.848 321.088z" />
    <glyph glyph-name="dismiss-circle-filled"
      unicode="&#xF123;"
      horiz-adv-x="512" d=" M256 448A192 192 0 1 0 256 64A192 192 0 0 0 256 448zM209.088 325.152A16 16 0 0 1 188.672 323.328L186.848 321.088A16 16 0 0 1 188.672 300.672L233.376 256L188.672 211.328L186.848 209.088A16 16 0 0 1 188.672 188.672L190.912 186.848A16 16 0 0 1 211.328 188.672L256 233.376L300.6720000000001 188.672L302.9120000000001 186.848A16 16 0 0 1 323.3280000000001 188.672L325.1520000000001 190.912A16 16 0 0 1 323.3280000000001 211.328L278.624 256L323.3280000000001 300.6720000000001L325.1520000000001 302.9120000000001A16 16 0 0 1 323.3280000000001 323.328L321.088 325.1520000000001A16 16 0 0 1 300.6720000000001 323.328L256 278.624L211.328 323.328L209.088 325.1520000000001z" />
    <glyph glyph-name="delete-regular"
      unicode="&#xF124;"
      horiz-adv-x="512" d=" M208 288V160A16 16 0 0 1 240 160V288A16 16 0 0 1 208 288zM288 304A16 16 0 0 0 304 288V160A16 16 0 0 0 272 160V288A16 16 0 0 0 288 304zM320 384H416A16 16 0 0 0 416 352H398.304L374.24 135.168A80 80 0 0 0 294.7200000000001 64H217.28A80 80 0 0 0 137.76 135.168L113.664 352H96A16 16 0 0 0 96 384H192A64 64 0 1 0 320 384zM256 416A32 32 0 0 1 224 384H288A32 32 0 0 1 256 416zM145.888 352L169.568 138.688A48 48 0 0 1 217.28 96H294.7200000000001A48 48 0 0 1 342.4000000000001 138.688L366.144 352H145.92z" />
    <glyph glyph-name="compose-regular"
      unicode="&#xF125;"
      horiz-adv-x="512" d=" M475.328 452.672A16 16 0 1 1 452.672 475.328L196.672 219.328L192 192L219.328 196.672L475.328 452.672zM144 448A80 80 0 0 1 64 368V144A80 80 0 0 1 144 64H368A80 80 0 0 1 448 144V304A16 16 0 0 1 416 304V144A48 48 0 0 0 368 96H144A48 48 0 0 0 96 144V368A48 48 0 0 0 144 416H304.16A16 16 0 0 1 304.16 448H144z" />
    <glyph glyph-name="chevron-up-regular"
      unicode="&#xF126;"
      horiz-adv-x="512" d=" M100.672 180.672A16 16 0 0 1 123.328 180.672L256 313.376L388.6720000000001 180.672A16 16 0 0 1 411.3280000000001 203.328L267.3280000000001 347.3280000000001A16 16 0 0 1 244.6720000000001 347.3280000000001L100.672 203.328A16 16 0 0 1 100.672 180.672z" />
    <glyph glyph-name="chevron-right-regular"
      unicode="&#xF127;"
      horiz-adv-x="512" d=" M180.672 411.328A16 16 0 0 1 180.672 388.6720000000001L313.376 256L180.672 123.328A16 16 0 0 1 203.328 100.672L347.328 244.672A16 16 0 0 1 347.328 267.328L203.328 411.328A16 16 0 0 1 180.672 411.328z" />
    <glyph glyph-name="chevron-left-regular"
      unicode="&#xF128;"
      horiz-adv-x="512" d=" M331.328 411.328A16 16 0 0 0 331.328 388.6720000000001L198.624 256L331.328 123.328A16 16 0 0 0 308.672 100.672L164.672 244.672A16 16 0 0 0 164.672 267.328L308.672 411.328A16 16 0 0 0 331.328 411.328z" />
    <glyph glyph-name="chevron-down-regular"
      unicode="&#xF129;"
      horiz-adv-x="512" d=" M100.672 331.328A16 16 0 0 0 123.328 331.328L256 198.624L388.6720000000001 331.3280000000001A16 16 0 0 0 411.3280000000001 308.6720000000001L267.3280000000001 164.672A16 16 0 0 0 244.6720000000001 164.672L100.672 308.6720000000001A16 16 0 0 0 100.672 331.3280000000001z" />
    <glyph glyph-name="chevron-double-up-regular"
      unicode="&#xF12A;"
      horiz-adv-x="512" d=" M123.328 244.6720000000001A16 16 0 1 0 100.672 267.3280000000001L244.672 411.3280000000001A16 16 0 0 0 267.328 411.3280000000001L411.328 267.3280000000001A16 16 0 0 0 388.672 244.6720000000001L256 377.376L123.328 244.6720000000001zM123.328 116.672A16 16 0 0 0 100.672 139.328L244.672 283.3280000000001A16 16 0 0 0 267.328 283.3280000000001L411.328 139.328A16 16 0 0 0 388.672 116.672L256 249.376L123.328 116.672z" />
    <glyph glyph-name="chevron-double-right-regular"
      unicode="&#xF12B;"
      horiz-adv-x="512" d=" M244.672 388.6720000000001A16 16 0 1 0 267.328 411.328L411.328 267.328A16 16 0 0 0 411.328 244.6720000000001L267.328 100.672A16 16 0 0 0 244.672 123.328L377.376 256L244.672 388.6720000000001zM116.672 388.6720000000001A16 16 0 1 0 139.328 411.328L283.328 267.328A16 16 0 0 0 283.328 244.6720000000001L139.328 100.672A16 16 0 0 0 116.672 123.328L249.376 256L116.672 388.6720000000001z" />
    <glyph glyph-name="chevron-double-left-regular"
      unicode="&#xF12C;"
      horiz-adv-x="512" d=" M267.328 123.328A16 16 0 0 0 244.672 100.672L100.672 244.672A16 16 0 0 0 100.672 267.328L244.672 411.328A16 16 0 1 0 267.328 388.672L134.624 256L267.328 123.328zM395.328 123.328A16 16 0 0 0 372.672 100.672L228.672 244.672A16 16 0 0 0 228.672 267.328L372.672 411.328A16 16 0 0 0 395.328 388.672L262.624 256L395.3280000000001 123.328z" />
    <glyph glyph-name="chevron-double-down-regular"
      unicode="&#xF12D;"
      horiz-adv-x="512" d=" M388.6720000000001 283.328A16 16 0 0 0 411.3280000000001 260.6720000000001L267.3280000000001 116.672A16 16 0 0 0 244.6720000000001 116.672L100.672 260.6720000000001A16 16 0 1 0 123.328 283.3280000000001L256 150.624L388.6720000000001 283.3280000000001zM388.6720000000001 411.328A16 16 0 0 0 411.3280000000001 388.6720000000001L267.3280000000001 244.6720000000001A16 16 0 0 0 244.6720000000001 244.6720000000001L100.672 388.6720000000001A16 16 0 1 0 123.328 411.3280000000001L256 278.624L388.6720000000001 411.328z" />
    <glyph glyph-name="chevron-circle-down-regular"
      unicode="&#xF12E;"
      horiz-adv-x="512" d=" M96 256A160 160 0 1 1 416 256A160 160 0 0 1 96 256zM256 64A192 192 0 1 0 256 448A192 192 0 0 0 256 64zM347.328 276.6720000000001L267.328 196.672A16 16 0 0 0 244.672 196.672L164.672 276.6720000000001A16 16 0 1 0 187.328 299.3280000000001L256 230.624L324.6720000000001 299.3280000000001A16 16 0 0 0 347.3280000000001 276.6720000000001z" />
    <glyph glyph-name="chevron-circle-down-filled"
      unicode="&#xF12F;"
      horiz-adv-x="512" d=" M64 256A192 192 0 1 1 448 256A192 192 0 0 1 64 256zM347.328 276.6720000000001L267.328 196.672A16 16 0 0 0 244.672 196.672L164.672 276.6720000000001A16 16 0 1 0 187.328 299.3280000000001L256 230.624L324.6720000000001 299.3280000000001A16 16 0 0 0 347.3280000000001 276.6720000000001z" />
    <glyph glyph-name="checkmark-filled"
      unicode="&#xF130;"
      horiz-adv-x="512" d=" M449.472 400.448A24 24 0 0 0 448.448 366.528L194.688 127.36A27.2 27.2 0 0 0 156.672 128.064L70.912 215.1040000000001A24 24 0 1 0 105.088 248.8000000000001L176.576 176.2560000000001L415.552 401.4720000000001A24 24 0 0 0 449.4720000000001 400.4480000000001z" />
    <glyph glyph-name="checkmark-circle-regular"
      unicode="&#xF131;"
      horiz-adv-x="512" d=" M256 448A192 192 0 1 0 256 64A192 192 0 0 0 256 448zM256 416A160 160 0 1 1 256 96A160 160 0 0 1 256 416zM232 222.656L323.8400000000001 314.752A16 16 0 0 0 348.3520000000001 294.368L346.4960000000001 292.128L243.3280000000001 188.704A16 16 0 0 0 222.912 186.816L220.672 188.672L164.672 244.672A16 16 0 0 0 185.088 269.152L187.328 267.328L232 222.656L323.8400000000001 314.752L232.0000000000001 222.656z" />
    <glyph glyph-name="checkmark-circle-filled"
      unicode="&#xF132;"
      horiz-adv-x="512" d=" M256 448A192 192 0 1 0 256 64A192 192 0 0 0 256 448zM323.8400000000001 314.752L232 222.656L187.328 267.328A16 16 0 1 1 164.672 244.6720000000001L220.672 188.672A16 16 0 0 1 243.328 188.672L346.496 292.1600000000001A16 16 0 0 1 323.84 314.752z" />
    <glyph glyph-name="arrow-upload-regular"
      unicode="&#xF133;"
      horiz-adv-x="512" d=" M112 448A16 16 0 0 1 112 416H400A16 16 0 0 1 400 448H112zM267.328 379.328A16 16 0 0 1 244.672 379.328L132.672 267.328A16 16 0 1 1 155.328 244.6720000000001L240 329.376V80A16 16 0 0 1 272 80V329.376L356.6720000000001 244.6720000000001A16 16 0 0 1 379.3280000000001 267.3280000000001L267.3280000000001 379.3280000000001z" />
    <glyph glyph-name="arrow-dropup"
      unicode="&#xF134;"
      horiz-adv-x="512" d=" M128 192L256 320L384 192z" />
    <glyph glyph-name="arrow-dropright"
      unicode="&#xF135;"
      horiz-adv-x="512" d=" M192 384L320 256L192 128z" />
    <glyph glyph-name="arrow-dropleft"
      unicode="&#xF136;"
      horiz-adv-x="512" d=" M320 384L192 256L320 128z" />
    <glyph glyph-name="arrow-dropdown"
      unicode="&#xF137;"
      horiz-adv-x="512" d=" M128 320L256 192L384 320z" />
    <glyph glyph-name="arrow-clockwise-regular"
      unicode="&#xF138;"
      horiz-adv-x="512" d=" M96 256A160 160 0 0 0 384 352H304A16 16 0 0 1 304 320H400A16 16 0 0 1 416 336V357.024V432A16 16 0 0 1 384 432V399.104A192 192 0 1 1 448 256A16 16 0 0 1 416 256A160 160 0 0 0 96 256z" />
    <glyph glyph-name="arrow-circle-down-filled"
      unicode="&#xF139;"
      horiz-adv-x="512" d=" M32 256A224 224 0 1 1 480 256A224 224 0 0 1 32 256zM249.888 145.216A16 16 0 0 0 244.768 148.608L244.672 148.704L164.672 228.704A16 16 0 1 0 187.328 251.3280000000001L240 198.624V352A16 16 0 0 0 272 352V198.624L324.6720000000001 251.3280000000001A16 16 0 0 0 347.3280000000001 228.6720000000001L267.3280000000001 148.672L267.2320000000001 148.608A15.968000000000002 15.968000000000002 0 0 0 249.8880000000001 145.216z" />
  </font>
</defs>
</svg>
